<?xml version="1.0" encoding="UTF-8" standalone="no"?>
<svg
   xmlns:dc="http://purl.org/dc/elements/1.1/"
   xmlns:cc="http://creativecommons.org/ns#"
   xmlns:rdf="http://www.w3.org/1999/02/22-rdf-syntax-ns#"
   xmlns:svg="http://www.w3.org/2000/svg"
   xmlns="http://www.w3.org/2000/svg"
   id="svg188"
   xml:space="preserve"
   viewBox="0 0 550 445"
   height="445"
   width="550"
   version="1.1"><metadata
     id="metadata192"><rdf:RDF><cc:Work
         rdf:about=""><dc:format>image/svg+xml</dc:format><dc:type
           rdf:resource="http://purl.org/dc/dcmitype/StillImage" /></cc:Work></rdf:RDF></metadata><defs
     id="defs4"><style
       id="style2"
       type="text/css">@import url(&quot;https://fonts.googleapis.com/css2?family=Amarante:wght@400&quot;);</style></defs><defs
     id="defs6" /><g
     id="background"
     transform="matrix(1 0 0 1 275.5 223)"><linearGradient
       y2="445"
       x2="0"
       y1="0"
       x1="0"
       gradientTransform="matrix(1 0 0 1 -275 -222.5)"
       gradientUnits="userSpaceOnUse"
       id="SVGID_1"><stop
         id="stop8"
         style="stop-color:rgb(1,5,24);stop-opacity: 1"
         offset="0%" /></linearGradient><rect
       id="rect11"
       height="445"
       width="550"
       ry="0"
       rx="0"
       y="-222.5"
       x="-275"
       style="stroke: none; stroke-width: 1; stroke-dasharray: none; stroke-linecap: butt; stroke-dashoffset: 0; stroke-linejoin: miter; stroke-miterlimit: 4; fill: url(#SVGID_1); fill-rule: nonzero; opacity: 1;" /></g><g
     id="icon"
     transform="matrix(0.39 0 0 0.39 275 200.2)"><g
       id="g125"
       style=""><g
         id="icon_piece"
         transform="matrix(1 0 0 1 0 0)"><linearGradient
           y2="44.3"
           x2="259.52"
           y1="259.29"
           x1="44.53"
           gradientTransform="matrix(1 0 0 1 0 0)"
           gradientUnits="userSpaceOnUse"
           id="SVGID_b50fe368-c47e-4096-9e7b-6807a4acbac8_3"><stop
             id="stop14"
             style="stop-color:rgb(45,137,193);stop-opacity: 1"
             offset="0%" /><stop
             id="stop16"
             style="stop-color:rgb(98,102,192);stop-opacity: 1"
             offset="40%" /><stop
             id="stop18"
             style="stop-color:rgb(174,51,191);stop-opacity: 1"
             offset="100%" /></linearGradient><path
           id="path21"
           stroke-linecap="round"
           d="M 256.22 236.63 l -4.77 -5.17 l -19.21 -20.87 l -0.47 -0.51 l -17 -18.39 v 0 l -1.55 -0.54 l -2.52 3 c -1.54 1.84 -3.18 3.62 -4.9 5.36 a 73.46 73.46 0 0 1 -10.44 8.73 c -11.09 7.64 -23.71 11.41 -38.16 11.41 c -19 0 -34.88 -6.6 -48.42 -20.14 s -20.14 -29.44 -20.14 -48.6 s 6.57 -35 20.11 -48.49 s 29.41 -20.07 48.45 -20.07 c 13.71 0 25.73 3.34 36.38 10.15 a 71.35 71.35 0 0 1 12.1 9.72 c 1.76 1.86 3.45 3.76 5 5.63 l 1.61 2 L 230.88 89.7 L 248.05 71 l 18.13 -19.69 c -2.13 -2.37 -4.33 -4.7 -6.66 -7 q -5.69 -5.68 -11.7 -10.68 a 151.65 151.65 0 0 0 -14.11 -10.39 l -0.39 -0.26 c -3.47 -2.25 -7 -4.32 -10.62 -6.24 Q 194.53 1.74 160.84 0 h -18 q -57 3 -98.29 44.29 Q 0 88.89 0 151.65 q 0 63.12 44.54 107.64 t 107.34 44.54 q 33.51 0 61.78 -12.56 a 147 147 0 0 0 36.62 -23.43 l 0.06 0 c 3.14 -2.68 6.2 -5.53 9.18 -8.51 s 6 -6.27 8.79 -9.52 Z M 204 266.37 q -23.8 10.92 -52.1 10.91 q -51.72 0 -88.54 -36.8 t -36.8 -88.83 q 0 -52 36.8 -88.67 t 88.54 -36.64 q 28.19 0 51.87 10.69 A 121 121 0 0 1 229.82 53.1 l 0 0 l -0.1 0.11 l -17.5 19 l -0.17 0.19 c -15.91 -11.38 -34.31 -17.14 -54.85 -17.14 c -26.23 0 -49 9.44 -67.6 28.05 s -28 41.34 -28 67.57 s 9.44 49.16 28 67.75 s 41.37 28.05 67.6 28.05 c 20.91 0 39.57 -5.94 55.67 -17.7 l 1 -0.71 l 6.24 6.8 l 12.11 13.17 c -1 0.87 -2.06 1.72 -3.09 2.53 A 119.92 119.92 0 0 1 204 266.37 Z"
           transform=" translate(-134.16, -151.92)"
           style="stroke: none; stroke-width: 1; stroke-dasharray: none; stroke-linecap: butt; stroke-dashoffset: 0; stroke-linejoin: miter; stroke-miterlimit: 4; fill: url(#SVGID_b50fe368-c47e-4096-9e7b-6807a4acbac8_3); fill-rule: nonzero; opacity: 1;" /></g><g
         id="g41"
         transform="matrix(1 0 0 1 98.4 -80.66)"><linearGradient
           y2="79.33"
           x2="216.25"
           y1="59.93"
           x1="249.85"
           gradientTransform="matrix(1 0 0 1 0 0)"
           gradientUnits="userSpaceOnUse"
           id="SVGID_e8244dc7-3fd2-405d-9476-6d507b2dbbed_4"><stop
             id="stop24"
             style="stop-color:rgb(119,46,137);stop-opacity: 0"
             offset="0%" /><stop
             id="stop26"
             style="stop-color:rgb(119,46,137);stop-opacity: 0.03"
             offset="16%" /><stop
             id="stop28"
             style="stop-color:rgb(119,46,137);stop-opacity: 0.13"
             offset="33%" /><stop
             id="stop30"
             style="stop-color:rgb(119,46,137);stop-opacity: 0.29"
             offset="51%" /><stop
             id="stop32"
             style="stop-color:rgb(119,46,137);stop-opacity: 0.51"
             offset="70%" /><stop
             id="stop34"
             style="stop-color:rgb(119,46,137);stop-opacity: 0.8"
             offset="88%" /><stop
             id="stop36"
             style="stop-color:rgb(119,46,137);stop-opacity: 1"
             offset="100%" /></linearGradient><path
           id="path39"
           stroke-linecap="round"
           d="M 253 65.35 l -4.93 5.36 L 230.88 89.38 C 229 87.23 227.05 85.1 225 83 a 102.1 102.1 0 0 0 -12.73 -10.79 l -0.17 -0.12 l 12.54 -13.6 l 4.94 -5.37 l 0.14 0.07 l 0 0 Z"
           transform=" translate(-232.55, -71.25)"
           style="stroke: none; stroke-width: 1; stroke-dasharray: none; stroke-linecap: butt; stroke-dashoffset: 0; stroke-linejoin: miter; stroke-miterlimit: 4; fill: url(#SVGID_e8244dc7-3fd2-405d-9476-6d507b2dbbed_4); fill-rule: nonzero; opacity: 1;" /></g><g
         id="g58"
         transform="matrix(1 0 0 1 93.01 -96.05)"><linearGradient
           y2="55.99"
           x2="227.29"
           y1="55.71"
           x1="227.01"
           gradientTransform="matrix(1 0 0 1 0 0)"
           gradientUnits="userSpaceOnUse"
           id="SVGID_bc4447da-e210-493b-b3e2-4baf5b23e34d_5"><stop
             id="stop43"
             style="stop-color:rgb(119,46,137);stop-opacity: 0"
             offset="0%" /><stop
             id="stop45"
             style="stop-color:rgb(119,46,137);stop-opacity: 0.05"
             offset="13%" /><stop
             id="stop47"
             style="stop-color:rgb(119,46,137);stop-opacity: 0.19"
             offset="33%" /><stop
             id="stop49"
             style="stop-color:rgb(119,46,137);stop-opacity: 0.41"
             offset="55.00000000000001%" /><stop
             id="stop51"
             style="stop-color:rgb(119,46,137);stop-opacity: 0.72"
             offset="80%" /><stop
             id="stop53"
             style="stop-color:rgb(119,46,137);stop-opacity: 1"
             offset="100%" /></linearGradient><path
           id="path56"
           stroke-linecap="round"
           d="M 229.57 53.15 l 0.14 0.07 l -5 5.36 s -0.05 0 -0.08 -0.06 Z"
           transform=" translate(-227.17, -55.86)"
           style="stroke: none; stroke-width: 1; stroke-dasharray: none; stroke-linecap: butt; stroke-dashoffset: 0; stroke-linejoin: miter; stroke-miterlimit: 4; fill: url(#SVGID_bc4447da-e210-493b-b3e2-4baf5b23e34d_5); fill-rule: nonzero; opacity: 1;" /></g><g
         id="g75"
         transform="matrix(1 0 0 1 91.63 -117.06)"><linearGradient
           y2="46.29"
           x2="236.63"
           y1="24.54"
           x1="214.88"
           gradientTransform="matrix(1 0 0 1 0 0)"
           gradientUnits="userSpaceOnUse"
           id="SVGID_b23a5c39-985b-4385-ad18-29a2676512ac_6"><stop
             id="stop60"
             style="stop-color:rgb(119,46,137);stop-opacity: 0"
             offset="0%" /><stop
             id="stop62"
             style="stop-color:rgb(119,46,137);stop-opacity: 0.05"
             offset="13%" /><stop
             id="stop64"
             style="stop-color:rgb(119,46,137);stop-opacity: 0.19"
             offset="33%" /><stop
             id="stop66"
             style="stop-color:rgb(119,46,137);stop-opacity: 0.41"
             offset="55.00000000000001%" /><stop
             id="stop68"
             style="stop-color:rgb(119,46,137);stop-opacity: 0.72"
             offset="80%" /><stop
             id="stop70"
             style="stop-color:rgb(119,46,137);stop-opacity: 1"
             offset="100%" /></linearGradient><path
           id="path73"
           stroke-linecap="round"
           d="M 247.82 33.85 l -18 19.25 A 121 121 0 0 0 203.75 37 L 222.7 16.72 l 0.12 -0.12 c 3.56 1.95 7.06 4.06 10.5 6.36 l 0.39 0.26 A 152.74 152.74 0 0 1 247.82 33.85 Z"
           transform=" translate(-225.78, -34.85)"
           style="stroke: none; stroke-width: 1; stroke-dasharray: none; stroke-linecap: butt; stroke-dashoffset: 0; stroke-linejoin: miter; stroke-miterlimit: 4; fill: url(#SVGID_b23a5c39-985b-4385-ad18-29a2676512ac_6); fill-rule: nonzero; opacity: 1;" /></g><g
         id="g96"
         transform="matrix(1 0 0 1 100.4 79.81)"><linearGradient
           y2="246.49"
           x2="246.36"
           y1="220.99"
           x1="220.86"
           gradientTransform="matrix(1 0 0 1 0 0)"
           gradientUnits="userSpaceOnUse"
           id="SVGID_a1c27f18-2053-4673-88c2-6c818fba82aa_7"><stop
             id="stop77"
             style="stop-color:rgb(84,76,147);stop-opacity: 1"
             offset="0%" /><stop
             id="stop79"
             style="stop-color:rgb(84,76,147);stop-opacity: 0.87"
             offset="6%" /><stop
             id="stop81"
             style="stop-color:rgb(84,76,147);stop-opacity: 0.61"
             offset="20%" /><stop
             id="stop83"
             style="stop-color:rgb(84,76,147);stop-opacity: 0.39"
             offset="34%" /><stop
             id="stop85"
             style="stop-color:rgb(84,76,147);stop-opacity: 0.22"
             offset="49%" /><stop
             id="stop87"
             style="stop-color:rgb(84,76,147);stop-opacity: 0.1"
             offset="65%" /><stop
             id="stop89"
             style="stop-color:rgb(84,76,147);stop-opacity: 0.02"
             offset="81%" /><stop
             id="stop91"
             style="stop-color:rgb(84,76,147);stop-opacity: 0"
             offset="100%" /></linearGradient><path
           id="path94"
           stroke-linecap="round"
           d="M 256.22 236.63 L 234.85 251 l -3.43 2.31 l -2.27 -2.54 c 1 -0.81 2.07 -1.66 3.09 -2.53 L 220.13 235.1 l -6.24 -6.8 l -1 0.71 A 126 126 0 0 0 224 219 a 113.17 113.17 0 0 0 7.81 -8.87 l 0.47 0.51 l 19.21 20.87 Z"
           transform=" translate(-234.56, -231.72)"
           style="stroke: none; stroke-width: 1; stroke-dasharray: none; stroke-linecap: butt; stroke-dashoffset: 0; stroke-linejoin: miter; stroke-miterlimit: 4; fill: url(#SVGID_a1c27f18-2053-4673-88c2-6c818fba82aa_7); fill-rule: nonzero; opacity: 1;" /></g><g
         id="g100"
         transform="matrix(1 0 0 1 -4.76 -0.11)"><path
           id="path98"
           stroke-linecap="round"
           d="M 232.24 248.27 c -1 0.87 -2.06 1.72 -3.09 2.53 A 119.92 119.92 0 0 1 204 266.37 q -23.8 10.92 -52.1 10.91 q -51.72 0 -88.54 -36.8 t -36.8 -88.83 q 0 -52 36.8 -88.67 t 88.54 -36.64 q 28.19 0 51.87 10.69 A 121 121 0 0 1 229.82 53.1 l 0 0 l -0.1 0.11 l -17.5 19 l -0.17 0.19 c -15.91 -11.38 -34.31 -17.14 -54.85 -17.14 c -26.23 0 -49 9.44 -67.6 28.05 s -28 41.34 -28 67.57 s 9.44 49.16 28 67.75 s 41.37 28.05 67.6 28.05 c 20.91 0 39.57 -5.94 55.67 -17.7 l 1 -0.71 l 6.24 6.8 Z"
           transform=" translate(-129.4, -151.81)"
           style="stroke: none; stroke-width: 1; stroke-dasharray: none; stroke-linecap: butt; stroke-dashoffset: 0; stroke-linejoin: miter; stroke-miterlimit: 4; fill: rgb(255,255,255); fill-rule: nonzero; opacity: 1;" /></g><g
         id="g123"
         transform="matrix(1 0 0 1 93.02 111.25)"><linearGradient
           y2="290.66"
           x2="212.59"
           y1="245.71"
           x1="238.55"
           gradientTransform="matrix(1 0 0 1 0 0)"
           gradientUnits="userSpaceOnUse"
           id="SVGID_b7195f27-5866-4d28-9f20-5d32ee0f8538_8"><stop
             id="stop102"
             style="stop-color:rgb(84,76,147);stop-opacity: 1"
             offset="0%" /><stop
             id="stop104"
             style="stop-color:rgb(84,76,147);stop-opacity: 0.92"
             offset="2%" /><stop
             id="stop106"
             style="stop-color:rgb(84,76,147);stop-opacity: 0.68"
             offset="11%" /><stop
             id="stop108"
             style="stop-color:rgb(84,76,147);stop-opacity: 0.47"
             offset="20%" /><stop
             id="stop110"
             style="stop-color:rgb(84,76,147);stop-opacity: 0.29"
             offset="30%" /><stop
             id="stop112"
             style="stop-color:rgb(84,76,147);stop-opacity: 0.16"
             offset="41%" /><stop
             id="stop114"
             style="stop-color:rgb(84,76,147);stop-opacity: 0.07"
             offset="54%" /><stop
             id="stop116"
             style="stop-color:rgb(84,76,147);stop-opacity: 0.02"
             offset="70%" /><stop
             id="stop118"
             style="stop-color:rgb(84,76,147);stop-opacity: 0"
             offset="100%" /></linearGradient><path
           id="path121"
           stroke-linecap="round"
           d="M 250.34 267.8 l -0.06 0 a 147 147 0 0 1 -36.62 23.43 L 204 266.37 a 119.92 119.92 0 0 0 25.17 -15.57 c 1 -0.81 2.07 -1.66 3.09 -2.53 L 220.13 235.1 v 0 L 234.85 251 Z"
           transform=" translate(-227.17, -263.17)"
           style="stroke: none; stroke-width: 1; stroke-dasharray: none; stroke-linecap: butt; stroke-dashoffset: 0; stroke-linejoin: miter; stroke-miterlimit: 4; fill: url(#SVGID_b7195f27-5866-4d28-9f20-5d32ee0f8538_8); fill-rule: nonzero; opacity: 1;" /></g></g></g><g
     id="g134"
     transform="matrix(1 0 0 1 275.5 223)"><linearGradient
       y2="445"
       x2="0"
       y1="0"
       x1="0"
       gradientTransform="matrix(1 0 0 1 -275 -222.5)"
       gradientUnits="userSpaceOnUse"
       id="linearGradient130"><stop
         id="stop128"
         style="stop-color:rgb(1,5,24);stop-opacity: 1"
         offset="0%" /></linearGradient><rect
       id="rect132"
       height="445"
       width="550"
       ry="0"
       rx="0"
       y="-222.5"
       x="-275"
       style="stroke: none; stroke-width: 1; stroke-dasharray: none; stroke-linecap: butt; stroke-dashoffset: 0; stroke-linejoin: miter; stroke-miterlimit: 4; fill: url(#SVGID_1); fill-rule: nonzero; opacity: 1;" /></g><g
     id="g151"
     transform="matrix(1 0 0 1 275.86 220.69)"><g
       id="g149"
       style=""><g
         id="shape"
         transform="matrix(1.32 0 0 1.32 0 0)"><linearGradient
           y2="33.89999999999999"
           x2="0"
           y1="0"
           x1="0"
           gradientTransform="matrix(1 0 0 1 -106.98 -106.98)"
           gradientUnits="userSpaceOnUse"
           id="SVGID_9"><stop
             id="stop136"
             style="stop-color:rgb(255,255,255);stop-opacity: 1"
             offset="0%" /></linearGradient><rect
           id="rect139"
           height="213.9609375"
           width="213.9609375"
           ry="2"
           rx="2"
           y="-106.98046875"
           x="-106.98046875"
           style="stroke: url(#SVGID_9); stroke-width: 4.011767578125; stroke-dasharray: none; stroke-linecap: butt; stroke-dashoffset: 0; stroke-linejoin: miter; stroke-miterlimit: 4; fill: none; fill-rule: nonzero; opacity: 1;" /></g><g
         id="shape-aux"
         transform="matrix(1.32 0 0 1.32 0 0)"><linearGradient
           y2="445"
           x2="0"
           y1="0"
           x1="0"
           gradientTransform="matrix(1 0 0 1 -160.47 -21.95)"
           gradientUnits="userSpaceOnUse"
           id="linearGradient144"><stop
             id="stop142"
             style="stop-color:rgb(1,5,24);stop-opacity: 1"
             offset="0%" /></linearGradient><rect
           id="rect146"
           height="43.89999999999999"
           width="320.94140625"
           ry="2"
           rx="2"
           y="-21.949999999999996"
           x="-160.470703125"
           style="stroke: none; stroke-width: 1; stroke-dasharray: none; stroke-linecap: butt; stroke-dashoffset: 0; stroke-linejoin: miter; stroke-miterlimit: 4; fill: url(#SVGID_1); fill-rule: nonzero; opacity: 1;" /></g></g></g><g
     id="logo-name"
     style=""
     transform="matrix(1.32 0 0 1.32 275.66 223.16)"><linearGradient
       y2="33.89999999999999"
       x2="0"
       y1="0"
       x1="0"
       gradientTransform="matrix(1 0 0 1 -133.73 -16.95)"
       gradientUnits="userSpaceOnUse"
       id="linearGradient155"><stop
         id="stop153"
         style="stop-color:rgb(255,255,255);stop-opacity: 1"
         offset="0%" /></linearGradient><text
       id="text185"
       style="stroke: none; stroke-width: 1; stroke-dasharray: none; stroke-linecap: butt; stroke-dashoffset: 0; stroke-linejoin: miter; stroke-miterlimit: 4; fill: url(#SVGID_9); fill-rule: nonzero; opacity: 1; white-space: pre;"
       font-weight="normal"
       font-style="normal"
       font-size="30"
       font-family="Amarante"
       xml:space="preserve"><tspan
         id="tspan157"
         y="9.42"
         x="-133.73">C</tspan><tspan
         id="tspan159"
         y="9.42"
         x="-114.95">H</tspan><tspan
         id="tspan161"
         y="9.42"
         x="-92.92">A</tspan><tspan
         id="tspan163"
         y="9.42"
         x="-72.16">R</tspan><tspan
         id="tspan165"
         y="9.42"
         x="-51.14">I</tspan><tspan
         id="tspan167"
         y="9.42"
         x="-37.63">T</tspan><tspan
         id="tspan169"
         y="9.42"
         x="-18.16">Y</tspan><tspan
         id="tspan171"
         style="white-space: pre; "
         y="9.42"
         x="-1.76" /><tspan
         id="tspan173"
         y="9.42"
         x="11.88">M</tspan><tspan
         id="tspan175"
         y="9.42"
         x="37.44">A</tspan><tspan
         id="tspan177"
         y="9.42"
         x="58.2">R</tspan><tspan
         id="tspan179"
         y="9.42"
         x="79.22">K</tspan><tspan
         id="tspan181"
         y="9.42"
         x="99.83">E</tspan><tspan
         id="tspan183"
         y="9.42"
         x="118.01">T</tspan></text>
</g></svg>